<svg xmlns="http://www.w3.org/2000/svg" width="24" height="24" viewBox="0 0 24 24" fill="none"
     stroke="url(#paint0_linear)"
     stroke-width="2" stroke-linecap="round" stroke-linejoin="round" class="lucide lucide-telescope">
    <path d="m10.065 12.493-6.18 1.318a.934.934 0 0 1-1.108-.702l-.537-2.15a1.07 1.07 0 0 1 .691-1.265l13.504-4.44"/>
    <path d="m13.56 11.747 4.332-.924"/>
    <path d="m16 21-3.105-6.21"/>
    <path d="M16.485 5.94a2 2 0 0 1 1.455-2.425l1.09-.272a1 1 0 0 1 1.212.727l1.515 6.06a1 1 0 0 1-.727 1.213l-1.09.272a2 2 0 0 1-2.425-1.455z"/>
    <path d="m6.158 8.633 1.114 4.456"/>
    <path d="m8 21 3.105-6.21"/>
    <circle cx="12" cy="13" r="2"/>

    <defs>
        <linearGradient id="paint0_linear" x1="2.94192" y1="4.89955" x2="37.7772" y2="39.7345"
                        gradientUnits="userSpaceOnUse">
            <stop offset="0.15937" stop-color="#3BEA62"/>
            <stop offset="0.5404" stop-color="#3C99CC"/>
            <stop offset="0.93739" stop-color="#6B57FF"/>
        </linearGradient>
    </defs>
</svg>