<svg width="36" height="36" viewBox="0 0 36 36" fill="none" xmlns="http://www.w3.org/2000/svg">
<path d="M15.0975 18.7394L5.82748 20.7164C5.46766 20.7945 5.09156 20.7278 4.78054 20.5308C4.46951 20.3337 4.24856 20.0221 4.16548 19.6634L3.35998 16.4384C3.26528 16.0499 3.31906 15.6399 3.51078 15.289C3.7025 14.938 4.01836 14.6712 4.39648 14.5409L24.6525 7.88093M20.34 17.6204L26.838 16.2344M24 31.4999L19.3425 22.1849M9.23698 12.9494L10.908 19.6334M12 31.4999L16.6575 22.1849M24.7275 8.90993C24.5347 8.13816 24.6563 7.3214 25.0655 6.63926C25.4748 5.95713 26.1383 5.46548 26.91 5.27243L28.545 4.86443C28.9307 4.76822 29.3388 4.82903 29.6796 5.0335C30.0205 5.23796 30.2663 5.56937 30.363 5.95493L32.6355 15.0449C32.7321 15.4308 32.6716 15.8393 32.467 16.1805C32.2625 16.5217 31.9309 16.7677 31.545 16.8644L29.91 17.2724C29.1382 17.4653 28.3214 17.3437 27.6393 16.9344C26.9572 16.5251 26.4655 15.8616 26.2725 15.0899L24.7275 8.90993ZM21 19.4999C21 21.1568 19.6568 22.4999 18 22.4999C16.3431 22.4999 15 21.1568 15 19.4999C15 17.8431 16.3431 16.4999 18 16.4999C19.6568 16.4999 21 17.8431 21 19.4999Z" stroke="url(#paint0_linear_30_2)" stroke-width="2" stroke-linecap="round" stroke-linejoin="round"/>
<defs>
<linearGradient id="paint0_linear_30_2" x1="21.5" y1="3.5" x2="13.5" y2="27" gradientUnits="userSpaceOnUse">
<stop stop-color="#40C3F3"/>
<stop offset="1" stop-color="#817DF9"/>
</linearGradient>
</defs>
</svg>
