<svg width="20" height="20" viewBox="0 0 20 20" fill="none" xmlns="http://www.w3.org/2000/svg">
    <path d="M8.3875 10.4108L3.2375 11.5092C3.0376 11.5525 2.82866 11.5155 2.65587 11.406C2.48308 11.2965 2.36033 11.1234 2.31417 10.9242L1.86667 9.1325C1.81406 8.91663 1.84393 8.6889 1.95045 8.49391C2.05696 8.29892 2.23244 8.15071 2.4425 8.07833L13.6958 4.37833"
          stroke="6C707E" stroke-width="1" stroke-linecap="round" stroke-linejoin="round"/>
    <path d="M11.3 9.78916L14.91 9.01917" stroke="6C707E" stroke-width="1" stroke-linecap="round"
          stroke-linejoin="round"/>
    <path d="M13.3333 17.5L10.7458 12.325" stroke="6C707E" stroke-width="1" stroke-linecap="round"
          stroke-linejoin="round"/>
    <path d="M13.7375 4.95C13.6304 4.52124 13.6979 4.06748 13.9253 3.68852C14.1527 3.30956 14.5213 3.03642 14.95 2.92917L15.8583 2.7025C16.0726 2.64905 16.2993 2.68283 16.4887 2.79643C16.6781 2.91002 16.8146 3.09414 16.8683 3.30833L18.1308 8.35833C18.1845 8.57272 18.1509 8.79965 18.0373 8.98922C17.9237 9.17878 17.7394 9.31545 17.525 9.36917L16.6167 9.59583C16.1879 9.70296 15.7342 9.6354 15.3552 9.40802C14.9762 9.18065 14.7031 8.81206 14.5958 8.38333L13.7375 4.95Z"
          stroke="6C707E" stroke-width="1" stroke-linecap="round" stroke-linejoin="round"/>
    <path d="M5.13165 7.19417L6.05999 10.9075" stroke="6C707E" stroke-width="1" stroke-linecap="round"
          stroke-linejoin="round"/>
    <path d="M6.66666 17.5L9.25416 12.325" stroke="6C707E" stroke-width="1" stroke-linecap="round"
          stroke-linejoin="round"/>
    <path d="M10 12.5C10.9205 12.5 11.6667 11.7538 11.6667 10.8333C11.6667 9.91286 10.9205 9.16666 10 9.16666C9.07954 9.16666 8.33334 9.91286 8.33334 10.8333C8.33334 11.7538 9.07954 12.5 10 12.5Z"
          stroke="6C707E" stroke-width="1" stroke-linecap="round" stroke-linejoin="round"/>
</svg>
