<svg width="248" height="49" viewBox="0 0 248 49" fill="none" xmlns="http://www.w3.org/2000/svg">
<g filter="url(#filter0_d_31_3)">
<g clip-path="url(#clip0_31_3)">
<path d="M4 20.5C4 9.17816 13.1782 0 24.5 0H223.5C234.822 0 244 9.17816 244 20.5V20.5C244 31.8218 234.822 41 223.5 41H24.5C13.1782 41 4 31.8218 4 20.5V20.5Z" fill="black"/>
<rect x="268.849" y="-58" width="231.562" height="187" transform="rotate(47.9456 268.849 -58)" fill="#FC730A"/>
<rect x="348.144" y="-38" width="268.547" height="189.756" transform="rotate(61.112 348.144 -38)" fill="#F32159"/>
<rect width="270.851" height="187.375" transform="matrix(0.894013 0.448041 0.448041 -0.894013 163.908 -20.4844)" fill="#F32159"/>
<path d="M56.9968 18.5C56.8974 18.1378 56.7518 17.7987 56.56 17.4826C56.3683 17.163 56.1303 16.8842 55.8462 16.6463C55.5657 16.4048 55.2408 16.2166 54.8714 16.0817C54.5057 15.9467 54.0973 15.8793 53.6463 15.8793C52.9361 15.8793 52.3004 16.0639 51.7393 16.4332C51.1783 16.8026 50.7344 17.3352 50.4077 18.0312C50.0845 18.7273 49.9229 19.5653 49.9229 20.5455C49.9229 21.522 50.0863 22.3583 50.413 23.0543C50.7397 23.7504 51.1871 24.2848 51.7553 24.6577C52.3271 25.027 52.9805 25.2116 53.7156 25.2116C54.3867 25.2116 54.9798 25.0625 55.4947 24.7642C56.0096 24.4659 56.4109 24.0398 56.6985 23.4858C56.9897 22.9318 57.1317 22.2731 57.1246 21.5096L57.4442 21.6108H53.9499V20.7159H58.0941V21.6108C58.0941 22.5412 57.9059 23.3455 57.5295 24.0238C57.1531 24.7021 56.6364 25.2259 55.9794 25.5952C55.3224 25.9645 54.5678 26.1491 53.7156 26.1491C52.7638 26.1491 51.9311 25.9201 51.2173 25.462C50.5036 25.0004 49.9478 24.3505 49.5501 23.5124C49.1559 22.6708 48.9588 21.6818 48.9588 20.5455C48.9588 19.6896 49.0724 18.9173 49.2997 18.2283C49.527 17.5394 49.8484 16.9499 50.2638 16.4599C50.6829 15.9698 51.1783 15.5952 51.75 15.3359C52.3217 15.0732 52.9538 14.9418 53.6463 14.9418C54.2429 14.9418 54.788 15.0359 55.2816 15.2241C55.7788 15.4123 56.2156 15.6715 56.592 16.0018C56.9719 16.3285 57.2827 16.7067 57.5241 17.1364C57.7692 17.5625 57.9343 18.017 58.0195 18.5H56.9968ZM63.6778 26.1705C62.9143 26.1705 62.2538 25.9929 61.6963 25.6378C61.1388 25.2791 60.7073 24.7837 60.4019 24.1516C60.1001 23.516 59.9491 22.7844 59.9491 21.957C59.9491 21.1332 60.1001 20.4016 60.4019 19.7624C60.7073 19.1197 61.1281 18.6172 61.6643 18.255C62.2041 17.8892 62.8273 17.7063 63.534 17.7063C63.9779 17.7063 64.4058 17.788 64.8177 17.9513C65.2297 18.1112 65.599 18.358 65.9257 18.6918C66.2559 19.022 66.517 19.4393 66.7087 19.9435C66.9005 20.4442 66.9964 21.0373 66.9964 21.7227V22.1914H60.6043V21.3551H66.0269C66.0269 20.8295 65.9204 20.3572 65.7073 19.9382C65.4978 19.5156 65.2048 19.1818 64.8284 18.9368C64.4555 18.6918 64.0241 18.5692 63.534 18.5692C63.0155 18.5692 62.5592 18.7077 62.165 18.9847C61.7709 19.2617 61.4619 19.6275 61.2382 20.082C61.018 20.5366 60.9062 21.0337 60.9026 21.5735V22.0742C60.9026 22.7241 61.0145 23.2923 61.2382 23.7788C61.4655 24.2617 61.7868 24.6364 62.2023 24.9027C62.6178 25.169 63.1096 25.3022 63.6778 25.3022C64.0649 25.3022 64.404 25.2418 64.6952 25.1211C64.99 25.0004 65.2368 24.8388 65.4356 24.6364C65.6381 24.4304 65.7907 24.2049 65.8937 23.9599L66.7939 24.2528C66.6697 24.5973 66.4655 24.9151 66.1814 25.2063C65.9008 25.4975 65.5493 25.7319 65.1267 25.9094C64.7077 26.0835 64.2247 26.1705 63.6778 26.1705ZM72.3084 17.8182V18.6438H68.4039V17.8182H72.3084ZM69.6238 15.858H70.5772V23.864C70.5772 24.2049 70.6358 24.473 70.753 24.6683C70.8702 24.8601 71.0229 24.9968 71.2111 25.0785C71.3993 25.1566 71.6 25.1957 71.813 25.1957C71.9373 25.1957 72.0439 25.1886 72.1326 25.1744C72.2214 25.1566 72.2995 25.1388 72.367 25.1211L72.5694 25.9787C72.4771 26.0142 72.3635 26.0462 72.2285 26.0746C72.0936 26.1065 71.9267 26.1225 71.7278 26.1225C71.3798 26.1225 71.0442 26.0462 70.7211 25.8935C70.4015 25.7408 70.1387 25.5135 69.9327 25.2116C69.7267 24.9098 69.6238 24.5352 69.6238 24.0877V15.858ZM82.047 17.8182V18.6438H78.0253V17.8182H82.047ZM79.2824 26V16.6197C79.2824 16.1793 79.3836 15.8082 79.586 15.5064C79.792 15.2045 80.0601 14.9755 80.3904 14.8192C80.7206 14.663 81.0704 14.5849 81.4397 14.5849C81.6883 14.5849 81.8943 14.6062 82.0576 14.6488C82.2245 14.6879 82.3559 14.7269 82.4518 14.766L82.1748 15.5969C82.1038 15.5756 82.0168 15.5508 81.9138 15.5224C81.8108 15.494 81.6812 15.4798 81.5249 15.4798C81.113 15.4798 80.7952 15.5952 80.5715 15.826C80.3477 16.0568 80.2359 16.3871 80.2359 16.8168L80.2306 26H79.2824ZM83.9393 26V17.8182H84.8608V19.0753H84.93C85.0934 18.6634 85.3775 18.3313 85.7823 18.0792C86.1907 17.8235 86.6523 17.6957 87.1673 17.6957C87.2454 17.6957 87.3324 17.6974 87.4283 17.701C87.5241 17.7045 87.604 17.7081 87.668 17.7116V18.6758C87.6254 18.6687 87.5508 18.658 87.4442 18.6438C87.3377 18.6296 87.2223 18.6225 87.098 18.6225C86.6719 18.6225 86.2919 18.7131 85.9581 18.8942C85.6278 19.0717 85.3668 19.3185 85.1751 19.6346C84.9833 19.9506 84.8874 20.3111 84.8874 20.7159V26H83.9393ZM92.217 26.1705C91.5103 26.1705 90.8853 25.9911 90.342 25.6325C89.8022 25.2738 89.3796 24.7784 89.0742 24.1463C88.7688 23.5107 88.6161 22.7773 88.6161 21.9464C88.6161 21.1083 88.7688 20.3714 89.0742 19.7358C89.3796 19.0966 89.8022 18.5994 90.342 18.2443C90.8853 17.8857 91.5103 17.7063 92.217 17.7063C92.9237 17.7063 93.5469 17.8857 94.0866 18.2443C94.6264 18.603 95.049 19.1001 95.3544 19.7358C95.6634 20.3714 95.8178 21.1083 95.8178 21.9464C95.8178 22.7773 95.6651 23.5107 95.3597 24.1463C95.0543 24.7784 94.63 25.2738 94.0866 25.6325C93.5469 25.9911 92.9237 26.1705 92.217 26.1705ZM92.217 25.3022C92.7852 25.3022 93.2663 25.1495 93.6605 24.8441C94.0547 24.5387 94.353 24.1321 94.5554 23.6243C94.7614 23.1165 94.8643 22.5572 94.8643 21.9464C94.8643 21.3356 94.7614 20.7745 94.5554 20.2631C94.353 19.7518 94.0547 19.3416 93.6605 19.0327C93.2663 18.7237 92.7852 18.5692 92.217 18.5692C91.6523 18.5692 91.1712 18.7237 90.7734 19.0327C90.3793 19.3416 90.0792 19.7518 89.8732 20.2631C89.6708 20.7745 89.5696 21.3356 89.5696 21.9464C89.5696 22.5572 89.6708 23.1165 89.8732 23.6243C90.0792 24.1321 90.3793 24.5387 90.7734 24.8441C91.1676 25.1495 91.6488 25.3022 92.217 25.3022ZM97.8992 26V17.8182H98.8208V19.0753H98.906C99.0693 18.6527 99.341 18.3207 99.721 18.0792C100.104 17.8342 100.564 17.7116 101.101 17.7116C101.665 17.7116 102.129 17.8448 102.491 18.1112C102.857 18.3739 103.13 18.7362 103.311 19.1978H103.38C103.565 18.7433 103.865 18.3828 104.281 18.1165C104.7 17.8466 105.207 17.7116 105.804 17.7116C106.564 17.7116 107.164 17.9513 107.604 18.4308C108.045 18.9066 108.265 19.6026 108.265 20.5188V26H107.317V20.5188C107.317 19.8725 107.152 19.3878 106.821 19.0646C106.491 18.7415 106.056 18.5799 105.516 18.5799C104.891 18.5799 104.41 18.7717 104.073 19.1552C103.736 19.5387 103.567 20.0252 103.567 20.6147V26H102.597V20.4336C102.597 19.8796 102.443 19.4322 102.134 19.0913C101.825 18.7504 101.39 18.5799 100.829 18.5799C100.453 18.5799 100.113 18.6722 99.8115 18.8569C99.5132 19.0415 99.2771 19.299 99.1031 19.6293C98.9326 19.956 98.8474 20.3324 98.8474 20.7585V26H97.8992ZM115.191 15.0909H116.342L120.299 24.5938H120.395L124.353 15.0909H125.504V26H124.566V17.195H124.481L120.8 26H119.895L116.214 17.195H116.129V26H115.191V15.0909ZM130.492 26.1864C129.998 26.1864 129.547 26.0906 129.139 25.8988C128.731 25.7035 128.406 25.4229 128.164 25.0572C127.923 24.6879 127.802 24.2404 127.802 23.7148C127.802 23.31 127.878 22.9691 128.031 22.6921C128.184 22.4151 128.4 22.1879 128.681 22.0103C128.961 21.8327 129.294 21.6925 129.677 21.5895C130.061 21.4865 130.483 21.4066 130.945 21.3498C131.403 21.293 131.79 21.2433 132.106 21.2006C132.426 21.158 132.669 21.0906 132.836 20.9982C133.003 20.9059 133.086 20.7567 133.086 20.5508V20.359C133.086 19.8015 132.919 19.3629 132.585 19.0433C132.255 18.7202 131.779 18.5586 131.158 18.5586C130.568 18.5586 130.087 18.6882 129.714 18.9474C129.345 19.2067 129.086 19.5121 128.937 19.8636L128.036 19.5387C128.221 19.0913 128.477 18.7344 128.803 18.468C129.13 18.1982 129.496 18.0046 129.901 17.8874C130.306 17.7667 130.716 17.7063 131.131 17.7063C131.444 17.7063 131.769 17.7472 132.106 17.8288C132.447 17.9105 132.763 18.0526 133.054 18.255C133.345 18.4538 133.581 18.7326 133.763 19.0913C133.944 19.4464 134.034 19.8974 134.034 20.4442V26H133.086V24.7056H133.028C132.914 24.9471 132.745 25.1815 132.521 25.4087C132.298 25.636 132.017 25.8224 131.68 25.968C131.343 26.1136 130.947 26.1864 130.492 26.1864ZM130.62 25.3182C131.124 25.3182 131.561 25.2063 131.93 24.9826C132.3 24.7589 132.584 24.4624 132.782 24.093C132.985 23.7202 133.086 23.31 133.086 22.8626V21.68C133.015 21.7475 132.896 21.8079 132.729 21.8612C132.566 21.9144 132.376 21.9624 132.159 22.005C131.946 22.044 131.733 22.0778 131.52 22.1062C131.307 22.1346 131.115 22.1594 130.945 22.1808C130.483 22.2376 130.089 22.3263 129.762 22.4471C129.436 22.5678 129.185 22.7347 129.011 22.9478C128.837 23.1573 128.75 23.4272 128.75 23.7575C128.75 24.2546 128.928 24.6399 129.283 24.9134C129.638 25.1832 130.084 25.3182 130.62 25.3182ZM136.556 26V17.8182H137.478V19.0753H137.547C137.711 18.6634 137.995 18.3313 138.4 18.0792C138.808 17.8235 139.27 17.6957 139.784 17.6957C139.863 17.6957 139.95 17.6974 140.045 17.701C140.141 17.7045 140.221 17.7081 140.285 17.7116V18.6758C140.243 18.6687 140.168 18.658 140.061 18.6438C139.955 18.6296 139.839 18.6225 139.715 18.6225C139.289 18.6225 138.909 18.7131 138.575 18.8942C138.245 19.0717 137.984 19.3185 137.792 19.6346C137.6 19.9506 137.505 20.3111 137.505 20.7159V26H136.556ZM142.766 22.9105L142.755 21.6694H142.968L146.804 17.8182H148.002L144.215 21.6108L144.13 21.6268L142.766 22.9105ZM141.903 26V15.0909H142.851V26H141.903ZM147.001 26L143.677 21.7972L144.359 21.142L148.215 26H147.001ZM152.755 26.1705C151.991 26.1705 151.331 25.9929 150.773 25.6378C150.216 25.2791 149.784 24.7837 149.479 24.1516C149.177 23.516 149.026 22.7844 149.026 21.957C149.026 21.1332 149.177 20.4016 149.479 19.7624C149.784 19.1197 150.205 18.6172 150.741 18.255C151.281 17.8892 151.904 17.7063 152.611 17.7063C153.055 17.7063 153.483 17.788 153.895 17.9513C154.307 18.1112 154.676 18.358 155.003 18.6918C155.333 19.022 155.594 19.4393 155.786 19.9435C155.978 20.4442 156.074 21.0373 156.074 21.7227V22.1914H149.681V21.3551H155.104C155.104 20.8295 154.998 20.3572 154.784 19.9382C154.575 19.5156 154.282 19.1818 153.906 18.9368C153.533 18.6918 153.101 18.5692 152.611 18.5692C152.093 18.5692 151.636 18.7077 151.242 18.9847C150.848 19.2617 150.539 19.6275 150.315 20.082C150.095 20.5366 149.983 21.0337 149.98 21.5735V22.0742C149.98 22.7241 150.092 23.2923 150.315 23.7788C150.543 24.2617 150.864 24.6364 151.279 24.9027C151.695 25.169 152.187 25.3022 152.755 25.3022C153.142 25.3022 153.481 25.2418 153.772 25.1211C154.067 25.0004 154.314 24.8388 154.513 24.6364C154.715 24.4304 154.868 24.2049 154.971 23.9599L155.871 24.2528C155.747 24.5973 155.543 24.9151 155.259 25.2063C154.978 25.4975 154.626 25.7319 154.204 25.9094C153.785 26.0835 153.302 26.1705 152.755 26.1705ZM161.386 17.8182V18.6438H157.481V17.8182H161.386ZM158.701 15.858H159.654V23.864C159.654 24.2049 159.713 24.473 159.83 24.6683C159.947 24.8601 160.1 24.9968 160.288 25.0785C160.476 25.1566 160.677 25.1957 160.89 25.1957C161.014 25.1957 161.121 25.1886 161.21 25.1744C161.299 25.1566 161.377 25.1388 161.444 25.1211L161.647 25.9787C161.554 26.0142 161.441 26.0462 161.306 26.0746C161.171 26.1065 161.004 26.1225 160.805 26.1225C160.457 26.1225 160.121 26.0462 159.798 25.8935C159.479 25.7408 159.216 25.5135 159.01 25.2116C158.804 24.9098 158.701 24.5352 158.701 24.0877V15.858ZM163.539 29.0682V17.8182H164.46V19.3789H164.572C164.686 19.1339 164.842 18.8835 165.041 18.6278C165.24 18.3686 165.503 18.1502 165.829 17.9727C166.16 17.7951 166.575 17.7063 167.076 17.7063C167.751 17.7063 168.34 17.8839 168.844 18.239C169.352 18.5906 169.746 19.0842 170.027 19.7198C170.311 20.3519 170.453 21.0888 170.453 21.9304C170.453 22.7756 170.311 23.516 170.027 24.1516C169.746 24.7873 169.352 25.2827 168.844 25.6378C168.34 25.9929 167.754 26.1705 167.086 26.1705C166.593 26.1705 166.179 26.0817 165.845 25.9041C165.515 25.7266 165.247 25.5082 165.041 25.2489C164.839 24.9862 164.682 24.7305 164.572 24.4819H164.487V29.0682H163.539ZM164.476 21.9144C164.476 22.5749 164.574 23.1609 164.769 23.6722C164.968 24.18 165.252 24.5795 165.622 24.8707C165.994 25.1584 166.445 25.3022 166.975 25.3022C167.518 25.3022 167.976 25.1531 168.349 24.8548C168.725 24.5529 169.011 24.1463 169.206 23.6349C169.405 23.1236 169.505 22.5501 169.505 21.9144C169.505 21.2859 169.407 20.7195 169.212 20.2152C169.02 19.7109 168.736 19.3114 168.36 19.0167C167.983 18.7184 167.521 18.5692 166.975 18.5692C166.442 18.5692 165.989 18.7131 165.616 19.0007C165.243 19.2848 164.959 19.679 164.764 20.1832C164.572 20.6839 164.476 21.261 164.476 21.9144ZM173.481 15.0909V26H172.533V15.0909H173.481ZM178.275 26.1864C177.782 26.1864 177.331 26.0906 176.922 25.8988C176.514 25.7035 176.189 25.4229 175.947 25.0572C175.706 24.6879 175.585 24.2404 175.585 23.7148C175.585 23.31 175.662 22.9691 175.814 22.6921C175.967 22.4151 176.184 22.1879 176.464 22.0103C176.745 21.8327 177.077 21.6925 177.46 21.5895C177.844 21.4865 178.266 21.4066 178.728 21.3498C179.186 21.293 179.573 21.2433 179.889 21.2006C180.209 21.158 180.452 21.0906 180.619 20.9982C180.786 20.9059 180.869 20.7567 180.869 20.5508V20.359C180.869 19.8015 180.702 19.3629 180.369 19.0433C180.038 18.7202 179.563 18.5586 178.941 18.5586C178.352 18.5586 177.87 18.6882 177.498 18.9474C177.128 19.2067 176.869 19.5121 176.72 19.8636L175.82 19.5387C176.004 19.0913 176.26 18.7344 176.587 18.468C176.913 18.1982 177.279 18.0046 177.684 17.8874C178.089 17.7667 178.499 17.7063 178.914 17.7063C179.227 17.7063 179.552 17.7472 179.889 17.8288C180.23 17.9105 180.546 18.0526 180.837 18.255C181.129 18.4538 181.365 18.7326 181.546 19.0913C181.727 19.4464 181.817 19.8974 181.817 20.4442V26H180.869V24.7056H180.811C180.697 24.9471 180.528 25.1815 180.305 25.4087C180.081 25.636 179.8 25.8224 179.463 25.968C179.126 26.1136 178.73 26.1864 178.275 26.1864ZM178.403 25.3182C178.907 25.3182 179.344 25.2063 179.713 24.9826C180.083 24.7589 180.367 24.4624 180.566 24.093C180.768 23.7202 180.869 23.31 180.869 22.8626V21.68C180.798 21.7475 180.679 21.8079 180.512 21.8612C180.349 21.9144 180.159 21.9624 179.942 22.005C179.729 22.044 179.516 22.0778 179.303 22.1062C179.09 22.1346 178.898 22.1594 178.728 22.1808C178.266 22.2376 177.872 22.3263 177.545 22.4471C177.219 22.5678 176.968 22.7347 176.794 22.9478C176.62 23.1573 176.533 23.4272 176.533 23.7575C176.533 24.2546 176.711 24.6399 177.066 24.9134C177.421 25.1832 177.867 25.3182 178.403 25.3182ZM187.536 26.1705C186.804 26.1705 186.167 25.9876 185.623 25.6218C185.084 25.256 184.665 24.7553 184.366 24.1197C184.068 23.484 183.919 22.7596 183.919 21.9464C183.919 21.1261 184.07 20.3963 184.372 19.7571C184.677 19.1179 185.1 18.6172 185.639 18.255C186.179 17.8892 186.806 17.7063 187.52 17.7063C188.067 17.7063 188.562 17.8129 189.006 18.0259C189.45 18.2354 189.816 18.532 190.103 18.9155C190.394 19.2955 190.577 19.7393 190.652 20.2472H189.693C189.594 19.7855 189.354 19.3913 188.974 19.0646C188.597 18.7344 188.118 18.5692 187.536 18.5692C187.014 18.5692 186.552 18.7113 186.151 18.9954C185.749 19.2759 185.435 19.6683 185.208 20.1726C184.984 20.6733 184.872 21.2539 184.872 21.9144C184.872 22.5785 184.982 23.1662 185.203 23.6776C185.423 24.1854 185.732 24.5831 186.129 24.8707C186.531 25.1584 186.999 25.3022 187.536 25.3022C187.898 25.3022 188.228 25.2347 188.526 25.0998C188.828 24.9613 189.08 24.766 189.283 24.5138C189.489 24.2617 189.627 23.9616 189.698 23.6136H190.657C190.586 24.1072 190.41 24.5476 190.13 24.9347C189.853 25.3182 189.492 25.62 189.048 25.8402C188.608 26.0604 188.104 26.1705 187.536 26.1705ZM195.997 26.1705C195.234 26.1705 194.573 25.9929 194.016 25.6378C193.458 25.2791 193.027 24.7837 192.721 24.1516C192.419 23.516 192.268 22.7844 192.268 21.957C192.268 21.1332 192.419 20.4016 192.721 19.7624C193.027 19.1197 193.447 18.6172 193.984 18.255C194.523 17.8892 195.147 17.7063 195.853 17.7063C196.297 17.7063 196.725 17.788 197.137 17.9513C197.549 18.1112 197.918 18.358 198.245 18.6918C198.575 19.022 198.836 19.4393 199.028 19.9435C199.22 20.4442 199.316 21.0373 199.316 21.7227V22.1914H192.924V21.3551H198.346C198.346 20.8295 198.24 20.3572 198.027 19.9382C197.817 19.5156 197.524 19.1818 197.148 18.9368C196.775 18.6918 196.343 18.5692 195.853 18.5692C195.335 18.5692 194.879 18.7077 194.484 18.9847C194.09 19.2617 193.781 19.6275 193.558 20.082C193.337 20.5366 193.225 21.0337 193.222 21.5735V22.0742C193.222 22.7241 193.334 23.2923 193.558 23.7788C193.785 24.2617 194.106 24.6364 194.522 24.9027C194.937 25.169 195.429 25.3022 195.997 25.3022C196.384 25.3022 196.723 25.2418 197.015 25.1211C197.309 25.0004 197.556 24.8388 197.755 24.6364C197.957 24.4304 198.11 24.2049 198.213 23.9599L199.113 24.2528C198.989 24.5973 198.785 24.9151 198.501 25.2063C198.22 25.4975 197.869 25.7319 197.446 25.9094C197.027 26.0835 196.544 26.1705 195.997 26.1705Z" fill="white"/>
</g>
</g>
<defs>
<filter id="filter0_d_31_3" x="0" y="0" width="248" height="49" filterUnits="userSpaceOnUse" color-interpolation-filters="sRGB">
<feFlood flood-opacity="0" result="BackgroundImageFix"/>
<feColorMatrix in="SourceAlpha" type="matrix" values="0 0 0 0 0 0 0 0 0 0 0 0 0 0 0 0 0 0 127 0" result="hardAlpha"/>
<feOffset dy="4"/>
<feGaussianBlur stdDeviation="2"/>
<feComposite in2="hardAlpha" operator="out"/>
<feColorMatrix type="matrix" values="0 0 0 0 0 0 0 0 0 0 0 0 0 0 0 0 0 0 0.25 0"/>
<feBlend mode="normal" in2="BackgroundImageFix" result="effect1_dropShadow_31_3"/>
<feBlend mode="normal" in="SourceGraphic" in2="effect1_dropShadow_31_3" result="shape"/>
</filter>
<clipPath id="clip0_31_3">
<path d="M4 20.5C4 9.17816 13.1782 0 24.5 0H223.5C234.822 0 244 9.17816 244 20.5V20.5C244 31.8218 234.822 41 223.5 41H24.5C13.1782 41 4 31.8218 4 20.5V20.5Z" fill="white"/>
</clipPath>
</defs>
</svg>
